{
  "accessors": [
    {
      "bufferView": 2,
      "componentType": 5126,
      "count": 435,
      "max": [
        -0.62643635272979736,
        24.112447738647461,
        22.002178192138672
      ],
      "min": [
        -2.4830448627471924,
        20.192220687866211,
        17.997817993164062
      ],
      "type": "VEC3"
    },
    {
      "bufferView": 2,
      "byteOffset": 5220,
      "componentType": 5126,
      "count": 435,
      "max": [
        0.98297286033630371,
        0.99999260902404785,
        1
      ],
      "min": [
        -0.99582511186599731,
        -0.95768755674362183,
        -1
      ],
      "type": "VEC3"
    },
    {
      "bufferView": 1,
      "componentType": 5126,
      "count": 435,
      "max": [
        0.65625,
        1
      ],
      "min": [
        0.34375,
        0
      ],
      "type": "VEC2"
    },
    {
      "bufferView": 0,
      "componentType": 5125,
      "count": 2112,
      "max": [
        434
      ],
      "min": [
        0
      ],
      "type": "SCALAR"
    },
    {
      "bufferView": 2,
      "byteOffset": 10440,
      "componentType": 5126,
      "count": 74,
      "max": [
        -1.6553469896316528,
        23.438749313354492,
        21.510360717773438
      ],
      "min": [
        -2.3088021278381348,
        21.262897491455078,
        18.489633560180664
      ],
      "type": "VEC3"
    },
    {
      "bufferView": 2,
      "byteOffset": 11328,
      "componentType": 5126,
      "count": 74,
      "max": [
        -0.95427048206329346,
        0.29858040809631348,
        0.01652899757027626
      ],
      "min": [
        -0.96069413423538208,
        0.27730005979537964,
        -0.016521332785487175
      ],
      "type": "VEC3"
    },
    {
      "bufferView": 1,
      "byteOffset": 3480,
      "componentType": 5126,
      "count": 74,
      "max": [
        0.61132121086120605,
        0.98761928081512451
      ],
      "min": [
        0.24218332767486572,
        0.31807035207748413
      ],
      "type": "VEC2"
    },
    {
      "bufferView": 0,
      "byteOffset": 8448,
      "componentType": 5125,
      "count": 336,
      "max": [
        73
      ],
      "min": [
        0
      ],
      "type": "SCALAR"
    },
    {
      "bufferView": 2,
      "byteOffset": 12216,
      "componentType": 5126,
      "count": 138,
      "max": [
        -1.4725737571716309,
        24.009136199951172,
        21.741872787475586
      ],
      "min": [
        -2.4752190113067627,
        20.67279052734375,
        18.258125305175781
      ],
      "type": "VEC3"
    },
    {
      "bufferView": 2,
      "byteOffset": 13872,
      "componentType": 5126,
      "count": 138,
      "max": [
        -0.93908149003982544,
        0.34369474649429321,
        0.059935253113508224
      ],
      "min": [
        -0.97346681356430054,
        0.22882823646068573,
        -0.059935532510280609
      ],
      "type": "VEC3"
    },
    {
      "bufferView": 1,
      "byteOffset": 4072,
      "componentType": 5126,
      "count": 138,
      "max": [
        0.65165871381759644,
        0.99629402160644531
      ],
      "min": [
        0.24218332767486572,
        0.31807035207748413
      ],
      "type": "VEC2"
    },
    {
      "bufferView": 0,
      "byteOffset": 9792,
      "componentType": 5125,
      "count": 504,
      "max": [
        137
      ],
      "min": [
        0
      ],
      "type": "SCALAR"
    },
    {
      "bufferView": 2,
      "byteOffset": 15528,
      "componentType": 5126,
      "count": 3526,
      "max": [
        2.3481407165527344,
        25.601097106933594,
        25.65648078918457
      ],
      "min": [
        -3.3668379783630371,
        7.6304020881652832,
        14.343524932861328
      ],
      "type": "VEC3"
    },
    {
      "bufferView": 2,
      "byteOffset": 57840,
      "componentType": 5126,
      "count": 3526,
      "max": [
        0.99991750717163086,
        0.99904894828796387,
        0.99998408555984497
      ],
      "min": [
        -0.99994611740112305,
        -0.99999958276748657,
        -0.99998396635055542
      ],
      "type": "VEC3"
    },
    {
      "bufferView": 1,
      "byteOffset": 5176,
      "componentType": 5126,
      "count": 3526,
      "max": [
        1,
        1
      ],
      "min": [
        0,
        0
      ],
      "type": "VEC2"
    },
    {
      "bufferView": 0,
      "byteOffset": 11808,
      "componentType": 5125,
      "count": 15984,
      "max": [
        3525
      ],
      "min": [
        0
      ],
      "type": "SCALAR"
    },
    {
      "bufferView": 2,
      "byteOffset": 100152,
      "componentType": 5126,
      "count": 2800,
      "max": [
        2.9031033515930176,
        23.836124420166016,
        26.07783317565918
      ],
      "min": [
        -3.5633916854858398,
        4.4378514289855957,
        13.922167778015137
      ],
      "type": "VEC3"
    },
    {
      "bufferView": 2,
      "byteOffset": 133752,
      "componentType": 5126,
      "count": 2800,
      "max": [
        0.9999963641166687,
        0.99998277425765991,
        1
      ],
      "min": [
        -0.99431133270263672,
        -1,
        -1
      ],
      "type": "VEC3"
    },
    {
      "bufferView": 1,
      "byteOffset": 33384,
      "componentType": 5126,
      "count": 2800,
      "max": [
        1,
        1
      ],
      "min": [
        0,
        0
      ],
      "type": "VEC2"
    },
    {
      "bufferView": 0,
      "byteOffset": 75744,
      "componentType": 5125,
      "count": 13488,
      "max": [
        2799
      ],
      "min": [
        0
      ],
      "type": "SCALAR"
    },
    {
      "bufferView": 2,
      "byteOffset": 167352,
      "componentType": 5126,
      "count": 738,
      "max": [
        5.5731620788574219,
        4.8296747207641602,
        23.195217132568359
      ],
      "min": [
        -2.6116442680358887,
        4.4378514289855957,
        16.804782867431641
      ],
      "type": "VEC3"
    },
    {
      "bufferView": 2,
      "byteOffset": 176208,
      "componentType": 5126,
      "count": 738,
      "max": [
        1,
        1,
        0.99987798929214478
      ],
      "min": [
        -0.98679429292678833,
        -1,
        -0.99987822771072388
      ],
      "type": "VEC3"
    },
    {
      "bufferView": 1,
      "byteOffset": 55784,
      "componentType": 5126,
      "count": 738,
      "max": [
        1,
        1
      ],
      "min": [
        0,
        0.87706136703491211
      ],
      "type": "VEC2"
    },
    {
      "bufferView": 0,
      "byteOffset": 129696,
      "componentType": 5125,
      "count": 3456,
      "max": [
        737
      ],
      "min": [
        0
      ],
      "type": "SCALAR"
    },
    {
      "bufferView": 2,
      "byteOffset": 185064,
      "componentType": 5126,
      "count": 450,
      "max": [
        0.37631607055664062,
        16.213369369506836,
        26.290477752685547
      ],
      "min": [
        -3.5961360931396484,
        7.8306403160095215,
        23.442659378051758
      ],
      "type": "VEC3"
    },
    {
      "bufferView": 2,
      "byteOffset": 190464,
      "componentType": 5126,
      "count": 450,
      "max": [
        0.97751671075820923,
        0.69608777761459351,
        0.9998553991317749
      ],
      "min": [
        -0.99131900072097778,
        -0.99880856275558472,
        -0.99966353178024292
      ],
      "type": "VEC3"
    },
    {
      "bufferView": 1,
      "byteOffset": 61688,
      "componentType": 5126,
      "count": 450,
      "max": [
        0.49620544910430908,
        0.53510153293609619
      ],
      "min": [
        0.125,
        0.21489855647087097
      ],
      "type": "VEC2"
    },
    {
      "bufferView": 0,
      "byteOffset": 143520,
      "componentType": 5125,
      "count": 2496,
      "max": [
        449
      ],
      "min": [
        0
      ],
      "type": "SCALAR"
    },
    {
      "bufferView": 2,
      "byteOffset": 195864,
      "componentType": 5126,
      "count": 450,
      "max": [
        0.37631607055664062,
        16.213369369506836,
        16.557340621948242
      ],
      "min": [
        -3.5961360931396484,
        7.8306403160095215,
        13.709522247314453
      ],
      "type": "VEC3"
    },
    {
      "bufferView": 2,
      "byteOffset": 201264,
      "componentType": 5126,
      "count": 450,
      "max": [
        0.97751682996749878,
        0.69608849287033081,
        0.99966347217559814
      ],
      "min": [
        -0.99131917953491211,
        -0.99880856275558472,
        -0.9998553991317749
      ],
      "type": "VEC3"
    },
    {
      "bufferView": 1,
      "byteOffset": 65288,
      "componentType": 5126,
      "count": 450,
      "max": [
        0.49620544910430908,
        0.53510153293609619
      ],
      "min": [
        0.125,
        0.21489855647087097
      ],
      "type": "VEC2"
    },
    {
      "bufferView": 0,
      "byteOffset": 153504,
      "componentType": 5125,
      "count": 2496,
      "max": [
        449
      ],
      "min": [
        0
      ],
      "type": "SCALAR"
    },
    {
      "bufferView": 2,
      "byteOffset": 206664,
      "componentType": 5126,
      "count": 3708,
      "max": [
        5.0705347061157227,
        33.249736785888672,
        25.497989654541016
      ],
      "min": [
        -0.55931848287582397,
        24.432491302490234,
        14.502010345458984
      ],
      "type": "VEC3"
    },
    {
      "bufferView": 2,
      "byteOffset": 251160,
      "componentType": 5126,
      "count": 3708,
      "max": [
        0.9999963641166687,
        0.99999278783798218,
        0.98782920837402344
      ],
      "min": [
        -0.99998384714126587,
        -1,
        -0.98782873153686523
      ],
      "type": "VEC3"
    },
    {
      "bufferView": 1,
      "byteOffset": 68888,
      "componentType": 5126,
      "count": 3708,
      "max": [
        1,
        1
      ],
      "min": [
        0,
        0
      ],
      "type": "VEC2"
    },
    {
      "bufferView": 0,
      "byteOffset": 163488,
      "componentType": 5125,
      "count": 15528,
      "max": [
        3707
      ],
      "min": [
        0
      ],
      "type": "SCALAR"
    },
    {
      "bufferView": 2,
      "byteOffset": 295656,
      "componentType": 5126,
      "count": 1393,
      "max": [
        5.0718326568603516,
        33.017505645751953,
        25.247650146484375
      ],
      "min": [
        -0.70417529344558716,
        28.52728271484375,
        14.752350807189941
      ],
      "type": "VEC3"
    },
    {
      "bufferView": 2,
      "byteOffset": 312372,
      "componentType": 5126,
      "count": 1393,
      "max": [
        0.99909132719039917,
        0.99998950958251953,
        0.99999922513961792
      ],
      "min": [
        -0.99999988079071045,
        -0.99865144491195679,
        -0.99999922513961792
      ],
      "type": "VEC3"
    },
    {
      "bufferView": 1,
      "byteOffset": 98552,
      "componentType": 5126,
      "count": 1393,
      "max": [
        1,
        1
      ],
      "min": [
        0,
        0
      ],
      "type": "VEC2"
    },
    {
      "bufferView": 0,
      "byteOffset": 225600,
      "componentType": 5125,
      "count": 5520,
      "max": [
        1392
      ],
      "min": [
        0
      ],
      "type": "SCALAR"
    },
    {
      "bufferView": 2,
      "byteOffset": 329088,
      "componentType": 5126,
      "count": 1188,
      "max": [
        5.055938720703125,
        32.563571929931641,
        25.130159378051758
      ],
      "min": [
        3.1490848064422607,
        28.649276733398438,
        14.869839668273926
      ],
      "type": "VEC3"
    },
    {
      "bufferView": 2,
      "byteOffset": 343344,
      "componentType": 5126,
      "count": 1188,
      "max": [
        0.9818236231803894,
        0.91141164302825928,
        0.92575532197952271
      ],
      "min": [
        0.37350872159004211,
        -0.88224881887435913,
        -0.92575299739837646
      ],
      "type": "VEC3"
    },
    {
      "bufferView": 1,
      "byteOffset": 109696,
      "componentType": 5126,
      "count": 1188,
      "max": [
        1,
        0.125
      ],
      "min": [
        0,
        0
      ],
      "type": "VEC2"
    },
    {
      "bufferView": 0,
      "byteOffset": 247680,
      "componentType": 5125,
      "count": 4560,
      "max": [
        1187
      ],
      "min": [
        0
      ],
      "type": "SCALAR"
    }
  ],
  "asset": {
    "extras": {
      "author": "samaned (https://sketchfab.com/samaned)",
      "license": "CC-BY-4.0 (http://creativecommons.org/licenses/by/4.0/)",
      "source": "https://sketchfab.com/3d-models/grey-matter-3d5f5666ed474a41950fdc7a739a1fee",
      "title": "Grey matter"
    },
    "generator": "Sketchfab-7.54.0",
    "version": "2.0"
  },
  "bufferViews": [
    {
      "buffer": 0,
      "byteLength": 265920,
      "byteOffset": 0,
      "name": "floatBufferViews",
      "target": 34963
    },
    {
      "buffer": 0,
      "byteLength": 119200,
      "byteOffset": 265920,
      "byteStride": 8,
      "name": "floatBufferViews",
      "target": 34962
    },
    {
      "buffer": 0,
      "byteLength": 357600,
      "byteOffset": 385120,
      "byteStride": 12,
      "name": "floatBufferViews",
      "target": 34962
    }
  ],
  "buffers": [
    {
      "byteLength": 742720,
      "uri": "scene.bin"
    }
  ],
  "materials": [
    {
      "doubleSided": true,
      "name": "white",
      "pbrMetallicRoughness": {
        "baseColorFactor": [
          1,
          1,
          1,
          1
        ],
        "metallicFactor": 0.59999999999999998,
        "roughnessFactor": 0.59999999999999998
      }
    },
    {
      "doubleSided": true,
      "name": "gray",
      "pbrMetallicRoughness": {
        "baseColorFactor": [
          0.087564621370779916,
          0.086770574693806002,
          0.086770574693806002,
          1
        ],
        "metallicFactor": 0,
        "roughnessFactor": 0.59999999999999998
      }
    },
    {
      "doubleSided": true,
      "name": "black",
      "pbrMetallicRoughness": {
        "baseColorFactor": [
          0,
          0,
          0,
          1
        ],
        "metallicFactor": 0.59999999999999998,
        "roughnessFactor": 0.59999999999999998
      }
    },
    {
      "doubleSided": true,
      "name": "skin",
      "pbrMetallicRoughness": {
        "baseColorFactor": [
          0.030135049611534782,
          0.071498477348603623,
          0.057273675608745613,
          1
        ],
        "metallicFactor": 0,
        "roughnessFactor": 0.59999999999999998
      }
    },
    {
      "doubleSided": true,
      "name": "green",
      "pbrMetallicRoughness": {
        "baseColorFactor": [
          0.25553385956714791,
          0.47883194347791608,
          0,
          1
        ],
        "metallicFactor": 1,
        "roughnessFactor": 0.59999999999999998
      }
    }
  ],
  "meshes": [
    {
      "name": "back_white_0",
      "primitives": [
        {
          "attributes": {
            "NORMAL": 1,
            "POSITION": 0,
            "TEXCOORD_0": 2
          },
          "indices": 3,
          "material": 0,
          "mode": 4
        }
      ]
    },
    {
      "name": "back_gray_0",
      "primitives": [
        {
          "attributes": {
            "NORMAL": 5,
            "POSITION": 4,
            "TEXCOORD_0": 6
          },
          "indices": 7,
          "material": 1,
          "mode": 4
        }
      ]
    },
    {
      "name": "back_black_0",
      "primitives": [
        {
          "attributes": {
            "NORMAL": 9,
            "POSITION": 8,
            "TEXCOORD_0": 10
          },
          "indices": 11,
          "material": 2,
          "mode": 4
        }
      ]
    },
    {
      "name": "body_white_0",
      "primitives": [
        {
          "attributes": {
            "NORMAL": 13,
            "POSITION": 12,
            "TEXCOORD_0": 14
          },
          "indices": 15,
          "material": 0,
          "mode": 4
        }
      ]
    },
    {
      "name": "body_black_0",
      "primitives": [
        {
          "attributes": {
            "NORMAL": 17,
            "POSITION": 16,
            "TEXCOORD_0": 18
          },
          "indices": 19,
          "material": 2,
          "mode": 4
        }
      ]
    },
    {
      "name": "body_skin_0",
      "primitives": [
        {
          "attributes": {
            "NORMAL": 21,
            "POSITION": 20,
            "TEXCOORD_0": 22
          },
          "indices": 23,
          "material": 3,
          "mode": 4
        }
      ]
    },
    {
      "name": "R_hand_skin_0",
      "primitives": [
        {
          "attributes": {
            "NORMAL": 25,
            "POSITION": 24,
            "TEXCOORD_0": 26
          },
          "indices": 27,
          "material": 3,
          "mode": 4
        }
      ]
    },
    {
      "name": "L_hand_skin_0",
      "primitives": [
        {
          "attributes": {
            "NORMAL": 29,
            "POSITION": 28,
            "TEXCOORD_0": 30
          },
          "indices": 31,
          "material": 3,
          "mode": 4
        }
      ]
    },
    {
      "name": "head_skin_0",
      "primitives": [
        {
          "attributes": {
            "NORMAL": 33,
            "POSITION": 32,
            "TEXCOORD_0": 34
          },
          "indices": 35,
          "material": 3,
          "mode": 4
        }
      ]
    },
    {
      "name": "head_black_0",
      "primitives": [
        {
          "attributes": {
            "NORMAL": 37,
            "POSITION": 36,
            "TEXCOORD_0": 38
          },
          "indices": 39,
          "material": 2,
          "mode": 4
        }
      ]
    },
    {
      "name": "head_green_0",
      "primitives": [
        {
          "attributes": {
            "NORMAL": 41,
            "POSITION": 40,
            "TEXCOORD_0": 42
          },
          "indices": 43,
          "material": 4,
          "mode": 4
        }
      ]
    }
  ],
  "nodes": [
    {
      "children": [
        1
      ],
      "name": "RootNode (gltf orientation matrix)",
      "rotation": [
        -0.70710678118654746,
        -0,
        -0,
        0.70710678118654757
      ]
    },
    {
      "children": [
        2
      ],
      "name": "RootNode (model correction matrix)"
    },
    {
      "children": [
        3
      ],
      "matrix": [
        1,
        0,
        0,
        0,
        0,
        0,
        1,
        0,
        0,
        -1,
        0,
        0,
        0,
        0,
        0,
        1
      ],
      "name": "d2173d253fd24d6b94749c2a8c7aa019.fbx"
    },
    {
      "children": [
        4
      ],
      "name": "RootNode"
    },
    {
      "children": [
        5,
        9,
        13,
        15,
        17
      ],
      "matrix": [
        1,
        0,
        0,
        0,
        0,
        1,
        0,
        0,
        0,
        0,
        1,
        0,
        0,
        0,
        -20,
        1
      ],
      "name": "char1"
    },
    {
      "children": [
        6,
        7,
        8
      ],
      "name": "back"
    },
    {
      "mesh": 0,
      "name": "back_white_0"
    },
    {
      "mesh": 1,
      "name": "back_gray_0"
    },
    {
      "mesh": 2,
      "name": "back_black_0"
    },
    {
      "children": [
        10,
        11,
        12
      ],
      "name": "body"
    },
    {
      "mesh": 3,
      "name": "body_white_0"
    },
    {
      "mesh": 4,
      "name": "body_black_0"
    },
    {
      "mesh": 5,
      "name": "body_skin_0"
    },
    {
      "children": [
        14
      ],
      "name": "R_hand"
    },
    {
      "mesh": 6,
      "name": "R_hand_skin_0"
    },
    {
      "children": [
        16
      ],
      "name": "L_hand"
    },
    {
      "mesh": 7,
      "name": "L_hand_skin_0"
    },
    {
      "children": [
        18,
        19,
        20
      ],
      "name": "head"
    },
    {
      "mesh": 8,
      "name": "head_skin_0"
    },
    {
      "mesh": 9,
      "name": "head_black_0"
    },
    {
      "mesh": 10,
      "name": "head_green_0"
    }
  ],
  "scene": 0,
  "scenes": [
    {
      "name": "OSG_Scene",
      "nodes": [
        0
      ]
    }
  ]
}

